# Blender v2.76 (sub 0) OBJ File: ''
# www.blender.org
mtllib ring.mtl
o Cylinder
v 0.000000 -1.000000 -3.000000
v 0.000000 1.000000 -3.000000
v 0.585271 1.000000 -2.942356
v 0.585271 -1.000000 -2.942356
v 2.121320 -1.000000 -2.121320
v 2.494409 -1.000000 -1.666711
v 2.771638 -1.000000 -1.148050
v 2.942356 -1.000000 -0.585271
v 3.000000 -1.000000 -0.000000
v 2.942356 -1.000000 0.585271
v 2.771639 -1.000000 1.148050
v 2.494409 -1.000000 1.666711
v 2.121320 -1.000000 2.121320
v 1.666711 -1.000000 2.494409
v 1.148050 -1.000000 2.771639
v 0.585270 -1.000000 2.942356
v -0.000001 -1.000000 3.000000
v -0.585272 -1.000000 2.942356
v -1.148052 -1.000000 2.771638
v -1.666712 -1.000000 2.494408
v -2.121322 -1.000000 2.121319
v -2.494410 -1.000000 1.666709
v -2.771640 -1.000000 1.148048
v -2.942357 -1.000000 0.585268
v -3.000000 -1.000000 -0.000003
v -1.750000 -1.000000 -0.000002
v -1.716375 -1.000000 0.341407
v -1.616790 -1.000000 0.669695
v -1.455073 -1.000000 0.972247
v -1.237438 -1.000000 1.237436
v -0.972249 -1.000000 1.455071
v -0.669697 -1.000000 1.616789
v -0.341409 -1.000000 1.716374
v -0.000001 -1.000000 1.750000
v 0.341408 -1.000000 1.716374
v 0.669696 -1.000000 1.616789
v 0.972248 -1.000000 1.455072
v 1.237437 -1.000000 1.237437
v 1.455072 -1.000000 0.972248
v 1.616789 -1.000000 0.669696
v 1.716374 -1.000000 0.341408
v 1.750000 -1.000000 -0.000000
v 1.148050 -1.000000 -2.771638
v 1.666711 -1.000000 -2.494409
v 1.716374 -1.000000 -0.341408
v 1.616789 -1.000000 -0.669696
v 1.455072 -1.000000 -0.972248
v 1.237437 -1.000000 -1.237437
v 0.972248 -1.000000 -1.455072
v 0.669696 -1.000000 -1.616789
v 0.341408 -1.000000 -1.716374
v 0.000000 -1.000000 -1.750000
v -0.341405 -1.000000 -1.716375
v -0.669694 -1.000000 -1.616790
v -0.972246 -1.000000 -1.455073
v -1.237435 -1.000000 -1.237438
v -1.455071 -1.000000 -0.972250
v -1.616788 -1.000000 -0.669698
v -1.716374 -1.000000 -0.341410
v -2.942355 -1.000000 -0.585274
v -2.771637 -1.000000 -1.148053
v -2.494407 -1.000000 -1.666714
v -2.121318 -1.000000 -2.121323
v -1.666707 -1.000000 -2.494411
v -1.148046 -1.000000 -2.771640
v -0.585266 -1.000000 -2.942357
v -0.585266 1.000000 -2.942357
v -1.148046 1.000000 -2.771640
v -1.666707 1.000000 -2.494411
v -2.121318 1.000000 -2.121323
v -2.494407 1.000000 -1.666714
v -2.771637 1.000000 -1.148053
v -2.942355 1.000000 -0.585274
v -3.000000 1.000000 -0.000003
v -2.942357 1.000000 0.585268
v -2.771640 1.000000 1.148048
v -2.494410 1.000000 1.666709
v -2.121322 1.000000 2.121319
v -1.666712 1.000000 2.494408
v -1.148052 1.000000 2.771638
v -0.585272 1.000000 2.942356
v -0.000001 1.000000 3.000000
v -0.000001 1.000000 1.750000
v -0.341409 1.000000 1.716374
v -0.669697 1.000000 1.616789
v -0.972249 1.000000 1.455071
v -1.237438 1.000000 1.237436
v -1.455073 1.000000 0.972247
v -1.616790 1.000000 0.669695
v -1.716375 1.000000 0.341407
v -1.750000 1.000000 -0.000002
v -1.716374 1.000000 -0.341410
v -1.616788 1.000000 -0.669698
v -1.455071 1.000000 -0.972250
v -1.237435 1.000000 -1.237438
v -0.972246 1.000000 -1.455073
v -0.669694 1.000000 -1.616790
v -0.341405 1.000000 -1.716375
v 0.000000 1.000000 -1.750000
v 2.121320 1.000000 -2.121320
v 1.666711 1.000000 -2.494409
v 1.148050 1.000000 -2.771638
v 0.341408 1.000000 -1.716374
v 0.669696 1.000000 -1.616789
v 0.972248 1.000000 -1.455072
v 1.237437 1.000000 -1.237437
v 1.455072 1.000000 -0.972248
v 1.616789 1.000000 -0.669696
v 1.716374 1.000000 -0.341408
v 1.750000 1.000000 -0.000000
v 1.716374 1.000000 0.341408
v 1.616789 1.000000 0.669696
v 1.455072 1.000000 0.972248
v 1.237437 1.000000 1.237437
v 0.972248 1.000000 1.455072
v 0.669696 1.000000 1.616789
v 0.341408 1.000000 1.716374
v 0.585270 1.000000 2.942356
v 1.148050 1.000000 2.771639
v 1.666711 1.000000 2.494409
v 2.121320 1.000000 2.121320
v 2.494409 1.000000 1.666711
v 2.771639 1.000000 1.148050
v 2.942356 1.000000 0.585271
v 3.000000 1.000000 -0.000000
v 2.942356 1.000000 -0.585271
v 2.771638 1.000000 -1.148050
v 2.494409 1.000000 -1.666711
vn 0.098000 0.000000 -0.995200
vn 0.000000 -1.000000 -0.000000
vn -0.098000 0.000000 -0.995200
vn 0.000000 1.000000 -0.000000
vn 0.290300 0.000000 -0.956900
vn 0.471400 0.000000 -0.881900
vn 0.634400 0.000000 -0.773000
vn 0.773000 0.000000 -0.634400
vn 0.881900 0.000000 -0.471400
vn 0.956900 0.000000 -0.290300
vn 0.995200 0.000000 -0.098000
vn 0.995200 0.000000 0.098000
vn 0.956900 0.000000 0.290300
vn 0.881900 0.000000 0.471400
vn 0.773000 0.000000 0.634400
vn 0.634400 0.000000 0.773000
vn 0.471400 0.000000 0.881900
vn 0.290300 0.000000 0.956900
vn 0.098000 0.000000 0.995200
vn -0.098000 0.000000 0.995200
vn -0.290300 0.000000 0.956900
vn -0.471400 0.000000 0.881900
vn -0.634400 0.000000 0.773000
vn -0.773000 0.000000 0.634400
vn -0.881900 0.000000 0.471400
vn -0.956900 0.000000 0.290300
vn -0.995200 0.000000 0.098000
vn -0.995200 0.000000 -0.098000
vn -0.956900 0.000000 -0.290300
vn -0.881900 0.000000 -0.471400
vn -0.773000 0.000000 -0.634400
vn -0.634400 0.000000 -0.773000
vn -0.471400 0.000000 -0.881900
vn -0.290300 0.000000 -0.956900
usemtl None
s off
f 1//1 2//1 3//1 4//1
f 5//2 6//2 7//2 8//2 9//2 10//2 11//2 12//2 13//2 14//2 15//2 16//2 17//2 18//2 19//2 20//2 21//2 22//2 23//2 24//2 25//2 26//2 27//2 28//2 29//2 30//2 31//2 32//2 33//2 34//2 35//2 36//2 37//2 38//2 39//2 40//2 41//2 42//2
f 1//2 4//2 43//2 44//2 5//2 42//2 45//2 46//2 47//2 48//2 49//2 50//2 51//2 52//2 53//2 54//2 55//2 56//2 57//2 58//2 59//2 26//2 25//2 60//2 61//2 62//2 63//2 64//2 65//2 66//2
f 66//3 67//3 2//3 1//3
f 2//4 67//4 68//4 69//4 70//4 71//4 72//4 73//4 74//4 75//4 76//4 77//4 78//4 79//4 80//4 81//4 82//4 83//4 84//4 85//4 86//4 87//4 88//4 89//4 90//4 91//4 92//4 93//4 94//4 95//4 96//4 97//4 98//4 99//4 100//4 101//4 102//4 3//4
f 100//4 99//4 103//4 104//4 105//4 106//4 107//4 108//4 109//4 110//4 111//4 112//4 113//4 114//4 115//4 116//4 117//4 83//4 82//4 118//4 119//4 120//4 121//4 122//4 123//4 124//4 125//4 126//4 127//4 128//4
f 4//5 3//5 102//5 43//5
f 43//6 102//6 101//6 44//6
f 44//7 101//7 100//7 5//7
f 5//8 100//8 128//8 6//8
f 6//9 128//9 127//9 7//9
f 7//10 127//10 126//10 8//10
f 8//11 126//11 125//11 9//11
f 9//12 125//12 124//12 10//12
f 10//13 124//13 123//13 11//13
f 11//14 123//14 122//14 12//14
f 12//15 122//15 121//15 13//15
f 13//16 121//16 120//16 14//16
f 14//17 120//17 119//17 15//17
f 15//18 119//18 118//18 16//18
f 16//19 118//19 82//19 17//19
f 17//20 82//20 81//20 18//20
f 18//21 81//21 80//21 19//21
f 19//22 80//22 79//22 20//22
f 20//23 79//23 78//23 21//23
f 21//24 78//24 77//24 22//24
f 22//25 77//25 76//25 23//25
f 23//26 76//26 75//26 24//26
f 24//27 75//27 74//27 25//27
f 25//28 74//28 73//28 60//28
f 60//29 73//29 72//29 61//29
f 61//30 72//30 71//30 62//30
f 62//31 71//31 70//31 63//31
f 63//32 70//32 69//32 64//32
f 64//33 69//33 68//33 65//33
f 65//34 68//34 67//34 66//34
f 52//20 51//20 103//20 99//20
f 53//19 52//19 99//19 98//19
f 51//21 50//21 104//21 103//21
f 54//18 53//18 98//18 97//18
f 50//22 49//22 105//22 104//22
f 55//17 54//17 97//17 96//17
f 49//23 48//23 106//23 105//23
f 56//16 55//16 96//16 95//16
f 48//24 47//24 107//24 106//24
f 57//15 56//15 95//15 94//15
f 47//25 46//25 108//25 107//25
f 58//14 57//14 94//14 93//14
f 46//26 45//26 109//26 108//26
f 59//13 58//13 93//13 92//13
f 45//27 42//27 110//27 109//27
f 26//12 59//12 92//12 91//12
f 42//28 41//28 111//28 110//28
f 27//11 26//11 91//11 90//11
f 41//29 40//29 112//29 111//29
f 28//10 27//10 90//10 89//10
f 40//30 39//30 113//30 112//30
f 29//9 28//9 89//9 88//9
f 39//31 38//31 114//31 113//31
f 30//8 29//8 88//8 87//8
f 38//32 37//32 115//32 114//32
f 31//7 30//7 87//7 86//7
f 37//33 36//33 116//33 115//33
f 32//6 31//6 86//6 85//6
f 36//34 35//34 117//34 116//34
f 33//5 32//5 85//5 84//5
f 35//3 34//3 83//3 117//3
f 34//1 33//1 84//1 83//1
